PathFileType	4	(X/Y/Z)	C:/Users/opensim2020/Desktop/walking_exp_matlab/subject03_walking09_straight_02.trc																																																																																																																																											
DataRate	CameraRate	NumFrames	NumMarkers	Units	OrigDataRate	OrigDataStartFrame	OrigNumFrames																																																																																																																																							
100	100	4	47	mm	100	2063	364																																																																																																																																							
Frame#	Time	LFHD			RFHD			LBHD			RBHD			C7			T10			CLAV			STRN			RBAK			LSHO			LUPA			LELB			LFRM			LWRA			LWRB			LFIN			RSHO			RUPA			RELB			RFRM			RWRA			RWRB			RFIN			LASI			RASI			LPSI			RPSI			LTHI			LKNE			LTIB			LANK			LHEE			LTOE			RTHI			RKNE			RTIB			RANK			RHEE			RTOE			*39			*40			*41			*42			*43			*44			*45			*46		
		X1	Y1	Z1	X2	Y2	Z2	X3	Y3	Z3	X4	Y4	Z4	X5	Y5	Z5	X6	Y6	Z6	X7	Y7	Z7	X8	Y8	Z8	X9	Y9	Z9	X10	Y10	Z10	X11	Y11	Z11	X12	Y12	Z12	X13	Y13	Z13	X14	Y14	Z14	X15	Y15	Z15	X16	Y16	Z16	X17	Y17	Z17	X18	Y18	Z18	X19	Y19	Z19	X20	Y20	Z20	X21	Y21	Z21	X22	Y22	Z22	X23	Y23	Z23	X24	Y24	Z24	X25	Y25	Z25	X26	Y26	Z26	X27	Y27	Z27	X28	Y28	Z28	X29	Y29	Z29	X30	Y30	Z30	X31	Y31	Z31	X32	Y32	Z32	X33	Y33	Z33	X34	Y34	Z34	X35	Y35	Z35	X36	Y36	Z36	X37	Y37	Z37	X38	Y38	Z38	X39	Y39	Z39	X40	Y40	Z40	X41	Y41	Z41	X42	Y42	Z42	X43	Y43	Z43	X44	Y44	Z44	X45	Y45	Z45	X46	Y46	Z46	X47	Y47	Z47
																																																																																																																																														
228	2.27	107.4814	1624.77649	-1517.78003	85.71512	1629.86609	-1386.41614	-16.91253	1573.23535	-1532.08386	-33.72664	1578.50903	-1401.94629	-51.89919	1421.27209	-1474.84631	-90.92334	1108.70544	-1476.40796	67.33568	1341.57837	-1459.96301	106.41952	1175.88806	-1462.4021	-117.70947	1247.89294	-1383.3446	43.25281	1379.60193	-1618.3761	69.803	1189.35168	-1695.44324	103.51086	1071.71338	-1709.06323	159.47186	954.18658	-1702.43237	199.71111	843.74402	-1667.80603	188.23845	845.62872	-1722.26428	224.00626	770.19635	-1710.19556	9.08062	1365.25183	-1306.08362	14.18002	1142.62183	-1233.38562	35.97451	1032.54846	-1218.95422	66.01452	898.98743	-1216.51892	108.65193	808.30615	-1250.66528	74.7246	798.9765	-1209.20557	106.28243	731.31091	-1217.74207	82.99382	943.87988	-1583.96143	69.37292	943.95758	-1345.01135	-81.73407	968.7309	-1540.89209	-88.67612	970.12921	-1392.29724	14.94543	641.70166	-1612.53528	5.02261	465.48706	-1567.16003	-56.63674	279.3559	-1563.61218	-86.6933	72.4363	-1516.35486	-127.64028	38.06873	-1479.01318	65.86053	35.42244	-1495.25049	82.03605	653.7525	-1297.16553	150.69794	487.12659	-1325.43018	76.79688	309.15714	-1320.23108	7.53664	103.94966	-1361.53992	-39.84859	76.41557	-1415.83093	134.03859	46.38507	-1368.32239	NaN	NaN	NaN	NaN	NaN	NaN	NaN	NaN	NaN	NaN	NaN	NaN	NaN	NaN	NaN	NaN	NaN	NaN	NaN	NaN	NaN	NaN	NaN	NaN
229	2.28	114.42319	1624.29834	-1517.26575	92.39171	1629.21362	-1385.96655	-9.98548	1572.94775	-1531.80237	-26.8975	1578.08508	-1401.71606	-45.10964	1420.97998	-1474.82788	-84.46297	1108.39136	-1476.40295	74.01771	1341.09106	-1459.82581	112.99448	1175.37622	-1462.7074	-111.17177	1247.42603	-1383.77698	50.30674	1379.4303	-1618.18628	77.79613	1189.6958	-1695.6543	112.59984	1072.35437	-1709.47583	169.9761	955.74414	-1702.57629	212.04147	846.15973	-1667.45996	200.31709	847.51019	-1721.90393	237.56171	772.87573	-1709.56555	15.44874	1364.47534	-1305.96838	19.73984	1141.83203	-1233.31482	41.51539	1031.75476	-1218.96362	71.53422	898.17761	-1216.5874	114.22923	807.60046	-1250.83118	80.31444	798.24725	-1209.16589	111.77701	730.61267	-1217.80566	88.9789	943.22888	-1584.41211	76.12429	943.50684	-1345.39124	-75.57062	968.30438	-1540.56628	-82.02407	969.67999	-1391.99695	19.5702	641.25732	-1612.26331	7.99993	465.12311	-1566.97168	-55.04319	279.38071	-1563.46704	-86.57246	72.62611	-1516.28906	-127.5955	38.30984	-1478.78796	66.01649	35.47205	-1495.31604	89.79282	653.7749	-1296.98462	159.53233	487.59042	-1326.09741	92.7055	306.94305	-1320.95374	32.62175	98.82658	-1362.48462	-14.02844	69.65905	-1416.11938	161.42171	46.40531	-1369.33423	NaN	NaN	NaN	NaN	NaN	NaN	NaN	NaN	NaN	NaN	NaN	NaN	NaN	NaN	NaN	NaN	NaN	NaN	NaN	NaN	NaN	NaN	NaN	NaN
230	2.29	121.36307	1623.80615	-1516.73096	99.13789	1628.5658	-1385.47375	-3.06768	1572.54443	-1531.46741	-20.15408	1577.55249	-1401.39307	-38.20638	1420.45581	-1474.68225	-78.02975	1107.96399	-1476.20313	80.86147	1340.52795	-1459.75244	119.58376	1174.71313	-1463.00085	-104.5451	1246.77441	-1383.84631	57.42505	1379.21558	-1617.95386	85.72643	1189.99854	-1695.83789	121.29469	1072.99084	-1709.87598	180.30647	957.18811	-1702.51538	224.08511	848.55981	-1666.95068	212.33516	849.38953	-1721.4104	250.78513	775.51825	-1708.67578	21.93799	1363.71008	-1305.89648	25.29973	1141.00366	-1233.30078	47.10773	1030.82458	-1219.06567	76.99448	897.27789	-1216.68823	119.60255	806.68506	-1250.90125	85.64735	797.34753	-1209.38965	117.19711	729.77887	-1217.87488	94.94287	942.57336	-1584.80237	82.99215	942.90668	-1345.59534	-69.45206	967.81116	-1540.28735	-75.37437	969.23169	-1391.62891	24.0845	640.80548	-1612.0719	11.03098	464.73099	-1566.86584	-53.49071	279.38904	-1563.28833	-86.48468	72.79632	-1516.18555	-127.61251	38.66609	-1478.63367	65.90999	35.33625	-1495.29688	96.94299	653.51343	-1296.85339	168.00288	487.81244	-1326.73621	108.5119	304.94592	-1321.49622	57.85597	94.33157	-1363.37793	12.31581	63.55847	-1416.98987	188.53116	46.63843	-1370.57263	NaN	NaN	NaN	NaN	NaN	NaN	NaN	NaN	NaN	NaN	NaN	NaN	NaN	NaN	NaN	NaN	NaN	NaN	NaN	NaN	NaN	NaN	NaN	NaN
231	2.3	128.32793	1623.22839	-1516.13721	105.9482	1627.86646	-1384.89392	3.93152	1571.99573	-1531.07031	-13.27472	1576.80286	-1401.05579	-31.34214	1419.93079	-1474.52112	-71.5237	1107.52271	-1475.9679	87.65392	1339.92041	-1459.61462	126.19784	1174.00903	-1463.2052	-97.95424	1246.21741	-1384.00391	64.45918	1378.91553	-1617.71191	93.66371	1190.17224	-1695.97119	129.97847	1073.54541	-1710.17126	190.52654	958.63489	-1702.45593	235.91835	850.77576	-1666.27502	224.00031	851.13672	-1720.68811	263.86688	778.03815	-1707.56165	28.52725	1362.90137	-1305.7677	30.87932	1140.06274	-1233.23987	52.59877	1029.90332	-1219.02246	82.42671	896.31354	-1216.81042	125.05961	805.75958	-1250.9491	90.95631	796.40973	-1209.57861	122.64763	728.92078	-1218	100.96535	941.91901	-1585.13	89.84815	942.20026	-1345.89185	-63.20879	967.19696	-1539.94861	-68.71539	968.6062	-1391.2616	28.52795	640.33295	-1611.89685	14.14836	464.42688	-1566.78259	-51.83844	279.49911	-1563.16736	-86.28437	72.9756	-1516.13635	-127.57451	38.9666	-1478.44385	65.91524	35.31452	-1495.31726	103.3097	652.91656	-1296.62549	176.23521	487.84485	-1327.36462	123.98779	303.1817	-1322.0011	82.81731	90.39621	-1363.9209	38.7571	57.74476	-1417.93701	215.27434	46.9137	-1371.87646	NaN	NaN	NaN	NaN	NaN	NaN	NaN	NaN	NaN	NaN	NaN	NaN	NaN	NaN	NaN	NaN	NaN	NaN	NaN	NaN	NaN	NaN	NaN	NaN
